<?xml version="1.0" encoding="UTF-8" standalone="no"?>
<svg width="10px" height="12px" viewBox="0 0 10 12" version="1.1" xmlns="http://www.w3.org/2000/svg" xmlns:xlink="http://www.w3.org/1999/xlink">
    <!-- Generator: Sketch 3.8.3 (29802) - http://www.bohemiancoding.com/sketch -->
    <title>Shape</title>
    <desc>Created with Sketch.</desc>
    <defs></defs>
    <g id="Welcome" stroke="none" stroke-width="1" fill="none" fill-rule="evenodd">
        <g id="Retro" transform="translate(-1034.000000, -317.000000)" fill="#4A4A4A">
            <g id="Action-Items" transform="translate(794.000000, 55.000000)">
                <g id="not-voted-unactioned-copy-3" transform="translate(229.000000, 199.000000)">
                    <g id="action-item-status" transform="translate(1.000000, 54.000000)">
                        <path d="M19.5238095,19.5 L19.047619,19.5 C19.047619,19.5 18.5714286,19.5 18.5714286,19 L18.5714286,18 L18.5714286,17.5 C18.0952381,17.5 18.0952381,17.5 18.0952381,18 L18.0952381,20 C18.0952381,20 17.1428571,21 15.2380952,21 C12.8571429,21 11.9047619,20 11.9047619,20 L11.9047619,18 L11.9047619,17.5 C11.4285714,17.5 11.4285714,17.5 11.4285714,18 L11.4285714,19 C11.4285714,19.5 10.952381,19.5 10.952381,19.5 L10.4761905,19.5 C10.4761905,19.5 10,19.5 10,19 L10,17 C10,15.5 11.4285714,14 13.3333333,13.5 C13.3333333,13.5 13.8095238,14.5 15.2380952,14.5 C16.1904762,14.5 16.6666667,13.5 16.6666667,13.5 C18.5714286,14 20,15.5 20,17 L20,19 C20,19.5 19.5238095,19.5 19.5238095,19.5 L19.5238095,19.5 Z M14.7619048,13.5 C13.8095238,13.5 12.8571429,12.5 12.8571429,11.5 C12.8571429,10 13.8095238,9 14.7619048,9 C16.1904762,9 17.1428571,10 17.1428571,11.5 C17.1428571,12.5 16.1904762,13.5 14.7619048,13.5 L14.7619048,13.5 Z" id="Shape"></path>
                    </g>
                </g>
            </g>
        </g>
    </g>
</svg>